<svg width="1600" height="900" viewBox="0 0 1600 900" fill="none" xmlns="http://www.w3.org/2000/svg">
  <defs>
    <linearGradient id="bg" x1="0" y1="0" x2="1600" y2="900" gradientUnits="userSpaceOnUse">
      <stop stop-color="#09110e"/>
      <stop offset="1" stop-color="#0b1018"/>
    </linearGradient>
    <linearGradient id="panel" x1="522" y1="96" x2="1510" y2="820" gradientUnits="userSpaceOnUse">
      <stop stop-color="#0f1725"/>
      <stop offset="1" stop-color="#0d1522"/>
    </linearGradient>
    <linearGradient id="lineA" x1="722" y1="252" x2="1200" y2="598" gradientUnits="userSpaceOnUse">
      <stop stop-color="#c7f36a"/>
      <stop offset="1" stop-color="#f4c04f"/>
    </linearGradient>
    <linearGradient id="lineB" x1="1200" y1="598" x2="1460" y2="624" gradientUnits="userSpaceOnUse">
      <stop stop-color="#58f0d0"/>
      <stop offset="1" stop-color="#ff71d1"/>
    </linearGradient>
    <filter id="glow" x="-20%" y="-20%" width="140%" height="140%">
      <feGaussianBlur stdDeviation="10" result="blur"/>
      <feMerge>
        <feMergeNode in="blur"/>
        <feMergeNode in="SourceGraphic"/>
      </feMerge>
    </filter>
  </defs>

  <rect width="1600" height="900" rx="32" fill="url(#bg)"/>
  <rect x="0" y="0" width="1600" height="900" rx="32" stroke="#143028" stroke-width="2"/>

  <rect x="42" y="42" width="384" height="816" rx="24" fill="#07110d" stroke="#173329"/>
  <text x="78" y="110" fill="#F5F7F8" font-family="Segoe UI, Arial, sans-serif" font-size="44" font-weight="700">Knowledge Copilot</text>
  <text x="78" y="162" fill="#8EA2A2" font-family="Segoe UI, Arial, sans-serif" font-size="22">Your memory dashboard</text>

  <text x="78" y="250" fill="#7BD2CC" font-family="Consolas, monospace" font-size="18" letter-spacing="6">RECURRING THEMES</text>

  <g>
    <rect x="78" y="286" width="270" height="50" rx="25" fill="#101D18" stroke="#213E34"/>
    <circle cx="102" cy="311" r="7" fill="#2CCAF0"/>
    <text x="124" y="318" fill="#E7E7E0" font-family="Segoe UI, Arial, sans-serif" font-size="20" font-weight="600">Interview Prep Reset</text>
    <rect x="306" y="296" width="32" height="30" rx="15" fill="#182923"/>
    <text x="317" y="318" fill="#98A6A0" font-family="Segoe UI, Arial, sans-serif" font-size="20">1</text>

    <rect x="78" y="356" width="270" height="50" rx="25" fill="#101D18" stroke="#213E34"/>
    <circle cx="102" cy="381" r="7" fill="#2CCAF0"/>
    <text x="124" y="388" fill="#E7E7E0" font-family="Segoe UI, Arial, sans-serif" font-size="20" font-weight="600">Prep Reset Interview</text>
    <rect x="306" y="366" width="32" height="30" rx="15" fill="#182923"/>
    <text x="317" y="388" fill="#98A6A0" font-family="Segoe UI, Arial, sans-serif" font-size="20">1</text>

    <rect x="78" y="426" width="270" height="50" rx="25" fill="#101D18" stroke="#213E34"/>
    <circle cx="102" cy="451" r="7" fill="#F35ABF"/>
    <text x="124" y="458" fill="#E7E7E0" font-family="Segoe UI, Arial, sans-serif" font-size="20" font-weight="600">Stop Chasing Ten</text>
    <rect x="306" y="436" width="32" height="30" rx="15" fill="#182923"/>
    <text x="317" y="458" fill="#98A6A0" font-family="Segoe UI, Arial, sans-serif" font-size="20">1</text>
  </g>

  <line x1="78" y1="650" x2="348" y2="650" stroke="#21352D"/>
  <text x="78" y="710" fill="#91A1B7" font-family="Segoe UI, Arial, sans-serif" font-size="18">Total Notes</text>
  <text x="330" y="710" fill="#F0F2F3" font-family="Segoe UI, Arial, sans-serif" font-size="18" font-weight="700" text-anchor="end">6</text>
  <text x="78" y="760" fill="#91A1B7" font-family="Segoe UI, Arial, sans-serif" font-size="18">Connections</text>
  <text x="330" y="760" fill="#F0F2F3" font-family="Segoe UI, Arial, sans-serif" font-size="18" font-weight="700" text-anchor="end">3</text>
  <text x="78" y="810" fill="#91A1B7" font-family="Segoe UI, Arial, sans-serif" font-size="18">Last Updated</text>
  <text x="330" y="810" fill="#8DE0C4" font-family="Segoe UI, Arial, sans-serif" font-size="18" font-weight="700" text-anchor="end">Apr 1</text>

  <text x="480" y="110" fill="#86A9D3" font-family="Consolas, monospace" font-size="18" letter-spacing="8">MEMORY GRAPH</text>

  <rect x="480" y="138" width="1078" height="602" rx="24" fill="url(#panel)" stroke="#1A3046"/>
  <text x="512" y="192" fill="#6BE1D6" font-family="Consolas, monospace" font-size="18" letter-spacing="5">INTERACTIVE MAP</text>
  <text x="512" y="228" fill="#B8CBD8" font-family="Segoe UI, Arial, sans-serif" font-size="20">6 notes</text>
  <text x="602" y="228" fill="#4E6276" font-family="Segoe UI, Arial, sans-serif" font-size="20">/</text>
  <text x="622" y="228" fill="#B8CBD8" font-family="Segoe UI, Arial, sans-serif" font-size="20">3 links</text>

  <rect x="1330" y="158" width="186" height="52" rx="26" fill="#16353A" stroke="#356B72"/>
  <text x="1423" y="191" fill="#85FFF3" font-family="Segoe UI, Arial, sans-serif" font-size="18" text-anchor="middle">Open fullscreen</text>

  <g opacity="0.18">
    <path d="M480 250H1558" stroke="#254155"/>
    <path d="M480 320H1558" stroke="#254155"/>
    <path d="M480 390H1558" stroke="#254155"/>
    <path d="M480 460H1558" stroke="#254155"/>
    <path d="M480 530H1558" stroke="#254155"/>
    <path d="M480 600H1558" stroke="#254155"/>
    <path d="M480 670H1558" stroke="#254155"/>
    <path d="M590 138V740" stroke="#254155"/>
    <path d="M720 138V740" stroke="#254155"/>
    <path d="M850 138V740" stroke="#254155"/>
    <path d="M980 138V740" stroke="#254155"/>
    <path d="M1110 138V740" stroke="#254155"/>
    <path d="M1240 138V740" stroke="#254155"/>
    <path d="M1370 138V740" stroke="#254155"/>
    <path d="M1500 138V740" stroke="#254155"/>
  </g>

  <text x="644" y="172" fill="#A7B5C8" font-family="Consolas, monospace" font-size="14">earlier notes</text>
  <text x="1360" y="172" fill="#A7B5C8" font-family="Consolas, monospace" font-size="14">recent notes</text>

  <path d="M742 330C850 390 1030 540 1202 598" stroke="url(#lineA)" stroke-width="4" fill="none" filter="url(#glow)"/>
  <path d="M1202 598C1280 575 1356 575 1435 620" stroke="url(#lineB)" stroke-width="4" fill="none" filter="url(#glow)"/>
  <path d="M1202 598C1280 610 1346 606 1418 584" stroke="#6AEFDB" stroke-width="3" fill="none" opacity="0.9"/>

  <g>
    <rect x="666" y="286" width="140" height="28" rx="14" fill="#101822" stroke="#3A4C61"/>
    <text x="736" y="305" fill="#E5EEF7" font-family="Segoe UI, Arial, sans-serif" font-size="14" font-weight="700" text-anchor="middle">Interview prep reset</text>
    <circle cx="722" cy="338" r="19" fill="#18202D" stroke="#B7F36E" stroke-width="3"/>
    <text x="722" y="344" fill="#F3F7FB" font-family="Segoe UI, Arial, sans-serif" font-size="17" font-weight="700" text-anchor="middle">1</text>
    <text x="690" y="378" fill="#A8F07B" font-family="Consolas, monospace" font-size="13">Interview Prep</text>
  </g>

  <g>
    <rect x="888" y="275" width="132" height="28" rx="14" fill="#101822" stroke="#3A4C61"/>
    <text x="954" y="294" fill="#E5EEF7" font-family="Segoe UI, Arial, sans-serif" font-size="14" font-weight="700" text-anchor="middle">When I feel stuck</text>
    <circle cx="954" cy="328" r="16" fill="#18202D" stroke="#F09D75" stroke-width="3"/>
    <text x="954" y="333" fill="#F3F7FB" font-family="Segoe UI, Arial, sans-serif" font-size="14" font-weight="700" text-anchor="middle">0</text>
    <text x="910" y="364" fill="#F0A27A" font-family="Consolas, monospace" font-size="12">Feeling Usually C...</text>
  </g>

  <g>
    <rect x="1040" y="458" width="118" height="28" rx="14" fill="#101822" stroke="#3A4C61"/>
    <text x="1099" y="477" fill="#E5EEF7" font-family="Segoe UI, Arial, sans-serif" font-size="14" font-weight="700" text-anchor="middle">Energy patterns</text>
    <circle cx="1099" cy="510" r="16" fill="#18202D" stroke="#3BC6FF" stroke-width="3"/>
    <text x="1099" y="515" fill="#F3F7FB" font-family="Segoe UI, Arial, sans-serif" font-size="14" font-weight="700" text-anchor="middle">0</text>
    <text x="1062" y="546" fill="#5FD2FF" font-family="Consolas, monospace" font-size="12">Energy Patterns</text>
  </g>

  <g>
    <rect x="1014" y="540" width="180" height="30" rx="15" fill="#101822" stroke="#4A5969"/>
    <text x="1104" y="560" fill="#F0F5FA" font-family="Segoe UI, Arial, sans-serif" font-size="14" font-weight="700" text-anchor="middle">Career notes after ...</text>
    <circle cx="1002" cy="598" r="24" fill="#18202D" stroke="#FFC64A" stroke-width="3"/>
    <text x="1002" y="605" fill="#F3F7FB" font-family="Segoe UI, Arial, sans-serif" font-size="18" font-weight="700" text-anchor="middle">3</text>
    <text x="955" y="642" fill="#F6CD68" font-family="Consolas, monospace" font-size="13">Mock Interview</text>
  </g>

  <g>
    <rect x="1306" y="528" width="134" height="28" rx="14" fill="#101822" stroke="#4A5969"/>
    <text x="1373" y="547" fill="#F0F5FA" font-family="Segoe UI, Arial, sans-serif" font-size="13" font-weight="700" text-anchor="middle">Project selection t...</text>
    <circle cx="1361" cy="585" r="19" fill="#18202D" stroke="#62F0DC" stroke-width="3"/>
    <text x="1361" y="591" fill="#F3F7FB" font-family="Segoe UI, Arial, sans-serif" font-size="17" font-weight="700" text-anchor="middle">1</text>
    <text x="1316" y="622" fill="#72F5DF" font-family="Consolas, monospace" font-size="12">Solve Real Workfl...</text>
  </g>

  <g>
    <rect x="1410" y="570" width="126" height="28" rx="14" fill="#101822" stroke="#4A5969"/>
    <text x="1473" y="589" fill="#F0F5FA" font-family="Segoe UI, Arial, sans-serif" font-size="13" font-weight="700" text-anchor="middle">What helps me recov...</text>
    <circle cx="1470" cy="642" r="19" fill="#18202D" stroke="#F25BC1" stroke-width="3"/>
    <text x="1470" y="648" fill="#F3F7FB" font-family="Segoe UI, Arial, sans-serif" font-size="17" font-weight="700" text-anchor="middle">1</text>
    <text x="1423" y="681" fill="#F17BC8" font-family="Consolas, monospace" font-size="12">Recover Momentum</text>
  </g>

  <text x="512" y="712" fill="#8EA2B7" font-family="Consolas, monospace" font-size="12">Feb 4</text>
  <text x="1508" y="712" fill="#8EA2B7" font-family="Consolas, monospace" font-size="12">Apr 1</text>

  <text x="500" y="792" fill="#86A9D3" font-family="Consolas, monospace" font-size="14" letter-spacing="5">THEME DRIFT</text>
  <text x="500" y="844" fill="#86A9D3" font-family="Consolas, monospace" font-size="14" letter-spacing="5">TIMELINE</text>
  <text x="1470" y="792" fill="#86A9D3" font-family="Consolas, monospace" font-size="14" letter-spacing="5" text-anchor="end">5 THEMES</text>
  <text x="1470" y="844" fill="#86A9D3" font-family="Consolas, monospace" font-size="14" letter-spacing="5" text-anchor="end">6 RECENT NOTES</text>
</svg>
